<?xml version="1.0" standalone="no"?>
<!DOCTYPE svg PUBLIC "-//W3C//DTD SVG 20010904//EN"
 "http://www.w3.org/TR/2001/REC-SVG-20010904/DTD/svg10.dtd">
<svg version="1.0" xmlns="http://www.w3.org/2000/svg"
 width="790.000000pt" height="793.000000pt" viewBox="0 0 790.000000 793.000000"
 preserveAspectRatio="xMidYMid meet">

<g transform="translate(0.000000,793.000000) scale(0.100000,-0.100000)"
fill="#e2cf96" stroke="green">
<path d="M650 4865 l0 -3065 413 0 414 0 393 878 c216 482 399 888 406 902 11
21 13 -132 14 -937 l0 -963 -820 0 -820 0 0 -55 0 -55 3300 0 3300 0 0 55 0
55 -2422 2 -2423 3 -3 960 c-1 598 1 956 7 950 5 -6 190 -410 409 -900 l400
-890 596 -3 596 -2 0 320 0 320 1420 0 1420 0 0 350 0 350 -1385 0 -1386 0 3
293 3 292 34 69 c57 117 187 229 331 286 122 49 132 49 1303 50 l1097 0 0
1900 0 1900 -3300 0 -3300 0 0 -3065z m6480 2040 l0 -915 -1185 0 c-1175 0
-1186 0 -1248 -21 -106 -35 -199 -107 -240 -184 -21 -38 -22 -55 -28 -455 -4
-228 -7 -432 -8 -452 l-1 -38 -293 0 c-314 0 -359 -5 -455 -54 -68 -34 -143
-105 -177 -168 -56 -99 -63 -58 268 -1438 163 -679 297 -1243 297 -1252 0 -17
-25 -18 -384 -18 l-383 0 -177 392 c-97 216 -292 652 -435 968 -142 316 -257
576 -257 577 1 1 87 7 191 13 404 22 654 74 663 138 6 38 -79 76 -228 102
-121 21 -110 14 -94 66 62 207 23 598 -87 857 -15 37 -24 67 -19 67 6 0 10 52
10 125 l0 125 -150 0 -150 0 0 -124 c0 -75 4 -126 10 -128 6 -2 -8 -37 -30
-78 -50 -95 -95 -231 -110 -338 -24 -161 -3 -392 45 -504 6 -16 -1 -18 -75
-18 l-82 0 6 33 c3 17 11 70 17 117 27 214 -38 576 -141 779 l-30 61 -95 0
-95 0 -31 -42 c-50 -70 -108 -199 -135 -304 -20 -76 -28 -133 -31 -243 -6
-159 4 -244 43 -351 13 -35 22 -65 21 -67 -2 -1 -51 -9 -110 -18 -205 -30
-322 -70 -322 -110 0 -67 248 -122 659 -145 105 -6 191 -12 193 -14 2 -2 -191
-438 -429 -970 l-433 -966 -317 0 -318 0 0 2955 0 2955 3180 0 3180 0 0 -915z"/>
<path d="M185 835 c-96 -36 -154 -116 -155 -213 0 -129 63 -192 256 -256 103
-34 139 -68 139 -131 0 -36 -6 -50 -33 -78 -70 -72 -188 -75 -267 -6 -38 33
-51 31 -94 -15 l-24 -26 24 -26 c35 -38 89 -62 167 -76 128 -22 255 28 310
121 23 39 27 58 27 121 0 61 -4 82 -23 113 -29 45 -89 82 -185 112 -149 46
-195 87 -184 167 10 76 67 112 167 106 55 -3 74 -9 104 -32 l38 -28 39 38 c37
36 38 39 21 57 -9 10 -35 29 -57 40 -52 27 -210 34 -270 12z"/>
<path d="M4958 831 c-77 -25 -118 -52 -177 -116 -146 -160 -137 -443 18 -594
162 -158 437 -157 594 1 205 205 149 562 -109 689 -58 29 -76 33 -167 36 -80
2 -114 -1 -159 -16z m268 -105 c259 -121 230 -533 -43 -612 -146 -43 -297 25
-363 161 -32 68 -39 192 -16 263 31 91 102 169 183 198 64 22 180 18 239 -10z"/>
<path d="M7560 841 c-83 -25 -152 -94 -170 -170 -21 -87 21 -195 92 -239 18
-11 72 -34 120 -51 152 -53 179 -74 180 -141 1 -53 -24 -88 -82 -118 -73 -37
-155 -25 -218 33 l-37 33 -43 -39 -44 -38 26 -26 c15 -15 52 -38 84 -53 78
-36 202 -38 277 -4 100 46 148 117 149 222 1 50 -4 74 -22 105 -31 55 -71 79
-196 121 -137 46 -176 79 -176 148 0 39 6 52 34 83 32 35 38 37 103 41 71 4
111 -8 147 -43 19 -19 37 -11 79 33 l29 30 -34 26 c-19 14 -54 32 -77 41 -46
16 -177 19 -221 6z"/>
<path d="M948 798 c-31 -66 -338 -767 -338 -772 0 -3 26 -6 59 -6 l59 0 39 98
39 97 200 0 199 0 39 -97 40 -98 58 0 c32 0 58 4 58 9 0 5 -76 186 -168 403
l-169 393 -49 3 c-48 3 -51 1 -66 -30z m140 -298 c39 -96 69 -176 68 -178 -2
-1 -71 -1 -154 0 l-151 3 46 110 c94 232 106 256 113 248 5 -4 40 -87 78 -183z"/>
<path d="M1320 780 l0 -50 130 0 130 0 0 -355 0 -355 55 0 55 0 0 355 0 355
130 0 130 0 0 50 0 50 -315 0 -315 0 0 -50z"/>
<path d="M2013 818 c3 -7 71 -184 152 -393 81 -209 149 -386 152 -392 3 -8 24
-13 53 -13 l48 0 128 322 c70 178 142 360 160 406 l32 82 -58 0 -58 0 -123
-329 c-68 -182 -126 -328 -128 -325 -3 3 -58 150 -122 327 l-116 322 -63 3
c-48 2 -61 0 -57 -10z"/>
<path d="M2871 439 c-95 -215 -175 -398 -178 -406 -5 -11 6 -13 57 -11 l62 3
38 95 38 95 198 3 199 2 40 -100 40 -100 62 0 62 0 -24 57 c-14 32 -92 213
-173 403 l-148 345 -50 3 -51 3 -172 -392z m298 62 c39 -96 70 -176 67 -178
-2 -2 -71 -2 -153 -1 l-151 3 76 183 c41 101 79 179 83 175 4 -4 39 -86 78
-182z"/>
<path d="M3870 425 l0 -405 55 0 55 0 0 190 0 190 213 -2 212 -3 3 -187 2
-188 50 0 50 0 0 405 0 405 -50 0 -50 0 -2 -167 -3 -168 -212 -3 -213 -2 0
170 0 170 -55 0 -55 0 0 -405z"/>
<path d="M5670 425 l0 -405 55 0 55 0 2 338 3 337 63 -155 c35 -85 98 -237
139 -338 l76 -183 34 3 35 3 137 333 136 333 3 -335 2 -336 55 0 55 0 0 405 0
405 -82 0 -83 0 -124 -300 c-68 -166 -127 -303 -132 -305 -7 -5 -36 61 -199
453 l-64 152 -83 0 -83 0 0 -405z"/>
<path d="M6720 425 l0 -405 270 0 270 0 0 50 0 50 -215 0 -215 0 0 135 0 135
196 0 195 0 -3 48 -3 47 -192 3 -193 2 0 120 0 120 205 0 205 0 0 50 0 50
-260 0 -260 0 0 -405z"/>
</g>
</svg>
